<mxfile host="Electron" modified="2023-11-22T14:36:41.886Z" agent="Mozilla/5.0 (X11; Linux x86_64) AppleWebKit/537.36 (KHTML, like Gecko) draw.io/22.0.3 Chrome/114.0.5735.289 Electron/25.8.4 Safari/537.36" etag="XfnFa_Qmfd0epPa7Sq9F" version="22.0.3" type="device">
  <diagram name="Page-1" id="M9ADu4qOtbhWn7Kph6zR">
    <mxGraphModel dx="1395" dy="735" grid="1" gridSize="10" guides="1" tooltips="1" connect="1" arrows="1" fold="1" page="1" pageScale="1" pageWidth="850" pageHeight="1100" math="0" shadow="0">
      <root>
        <mxCell id="0" />
        <mxCell id="1" parent="0" />
        <mxCell id="bQQ_jq8waS_YfLzM95Vw-2" value="" style="endArrow=none;html=1;rounded=0;" edge="1" parent="1">
          <mxGeometry width="50" height="50" relative="1" as="geometry">
            <mxPoint x="80" y="80" as="sourcePoint" />
            <mxPoint x="720" y="80" as="targetPoint" />
          </mxGeometry>
        </mxCell>
        <mxCell id="bQQ_jq8waS_YfLzM95Vw-3" value="" style="endArrow=none;html=1;rounded=0;" edge="1" parent="1">
          <mxGeometry width="50" height="50" relative="1" as="geometry">
            <mxPoint x="80" y="80" as="sourcePoint" />
            <mxPoint x="80" y="720" as="targetPoint" />
          </mxGeometry>
        </mxCell>
        <mxCell id="bQQ_jq8waS_YfLzM95Vw-4" value="" style="endArrow=none;html=1;rounded=0;" edge="1" parent="1">
          <mxGeometry width="50" height="50" relative="1" as="geometry">
            <mxPoint x="80" y="720" as="sourcePoint" />
            <mxPoint x="720" y="720" as="targetPoint" />
          </mxGeometry>
        </mxCell>
        <mxCell id="bQQ_jq8waS_YfLzM95Vw-5" value="" style="endArrow=none;html=1;rounded=0;" edge="1" parent="1">
          <mxGeometry width="50" height="50" relative="1" as="geometry">
            <mxPoint x="720" y="80" as="sourcePoint" />
            <mxPoint x="720" y="720" as="targetPoint" />
          </mxGeometry>
        </mxCell>
        <mxCell id="bQQ_jq8waS_YfLzM95Vw-6" value="" style="endArrow=none;html=1;rounded=0;" edge="1" parent="1">
          <mxGeometry width="50" height="50" relative="1" as="geometry">
            <mxPoint x="100" y="700" as="sourcePoint" />
            <mxPoint x="100" y="340" as="targetPoint" />
          </mxGeometry>
        </mxCell>
        <mxCell id="bQQ_jq8waS_YfLzM95Vw-7" value="" style="endArrow=none;html=1;rounded=0;" edge="1" parent="1">
          <mxGeometry width="50" height="50" relative="1" as="geometry">
            <mxPoint x="700" y="700" as="sourcePoint" />
            <mxPoint x="700" y="340" as="targetPoint" />
          </mxGeometry>
        </mxCell>
        <mxCell id="bQQ_jq8waS_YfLzM95Vw-8" value="" style="endArrow=none;html=1;rounded=0;" edge="1" parent="1">
          <mxGeometry width="50" height="50" relative="1" as="geometry">
            <mxPoint x="100" y="340" as="sourcePoint" />
            <mxPoint x="700" y="340" as="targetPoint" />
          </mxGeometry>
        </mxCell>
        <mxCell id="bQQ_jq8waS_YfLzM95Vw-9" value="" style="endArrow=none;html=1;rounded=0;" edge="1" parent="1">
          <mxGeometry width="50" height="50" relative="1" as="geometry">
            <mxPoint x="100" y="700" as="sourcePoint" />
            <mxPoint x="700" y="700" as="targetPoint" />
          </mxGeometry>
        </mxCell>
        <mxCell id="bQQ_jq8waS_YfLzM95Vw-10" value="" style="endArrow=none;html=1;rounded=0;" edge="1" parent="1">
          <mxGeometry width="50" height="50" relative="1" as="geometry">
            <mxPoint x="100" y="460" as="sourcePoint" />
            <mxPoint x="700" y="460" as="targetPoint" />
          </mxGeometry>
        </mxCell>
        <mxCell id="bQQ_jq8waS_YfLzM95Vw-11" value="" style="endArrow=none;html=1;rounded=0;" edge="1" parent="1">
          <mxGeometry width="50" height="50" relative="1" as="geometry">
            <mxPoint x="100" y="580" as="sourcePoint" />
            <mxPoint x="700" y="580" as="targetPoint" />
          </mxGeometry>
        </mxCell>
        <mxCell id="bQQ_jq8waS_YfLzM95Vw-12" value="" style="endArrow=none;html=1;rounded=0;" edge="1" parent="1">
          <mxGeometry width="50" height="50" relative="1" as="geometry">
            <mxPoint x="220" y="700" as="sourcePoint" />
            <mxPoint x="220" y="340" as="targetPoint" />
          </mxGeometry>
        </mxCell>
        <mxCell id="bQQ_jq8waS_YfLzM95Vw-13" value="" style="endArrow=none;html=1;rounded=0;" edge="1" parent="1">
          <mxGeometry width="50" height="50" relative="1" as="geometry">
            <mxPoint x="340" y="700" as="sourcePoint" />
            <mxPoint x="340" y="340" as="targetPoint" />
          </mxGeometry>
        </mxCell>
        <mxCell id="bQQ_jq8waS_YfLzM95Vw-14" value="" style="endArrow=none;html=1;rounded=0;" edge="1" parent="1">
          <mxGeometry width="50" height="50" relative="1" as="geometry">
            <mxPoint x="460" y="700" as="sourcePoint" />
            <mxPoint x="460" y="340" as="targetPoint" />
          </mxGeometry>
        </mxCell>
        <mxCell id="bQQ_jq8waS_YfLzM95Vw-15" value="" style="endArrow=none;html=1;rounded=0;" edge="1" parent="1">
          <mxGeometry width="50" height="50" relative="1" as="geometry">
            <mxPoint x="580" y="700" as="sourcePoint" />
            <mxPoint x="580" y="340" as="targetPoint" />
          </mxGeometry>
        </mxCell>
        <mxCell id="bQQ_jq8waS_YfLzM95Vw-16" value="" style="endArrow=none;html=1;rounded=0;" edge="1" parent="1">
          <mxGeometry width="50" height="50" relative="1" as="geometry">
            <mxPoint x="150" y="270" as="sourcePoint" />
            <mxPoint x="150" y="150" as="targetPoint" />
          </mxGeometry>
        </mxCell>
        <mxCell id="bQQ_jq8waS_YfLzM95Vw-17" value="" style="endArrow=none;html=1;rounded=0;" edge="1" parent="1">
          <mxGeometry width="50" height="50" relative="1" as="geometry">
            <mxPoint x="270" y="270" as="sourcePoint" />
            <mxPoint x="270" y="150" as="targetPoint" />
          </mxGeometry>
        </mxCell>
        <mxCell id="bQQ_jq8waS_YfLzM95Vw-18" value="" style="endArrow=none;html=1;rounded=0;" edge="1" parent="1">
          <mxGeometry width="50" height="50" relative="1" as="geometry">
            <mxPoint x="150" y="150" as="sourcePoint" />
            <mxPoint x="270" y="150" as="targetPoint" />
          </mxGeometry>
        </mxCell>
        <mxCell id="bQQ_jq8waS_YfLzM95Vw-20" value="" style="endArrow=none;html=1;rounded=0;" edge="1" parent="1">
          <mxGeometry width="50" height="50" relative="1" as="geometry">
            <mxPoint x="150" y="270" as="sourcePoint" />
            <mxPoint x="270" y="270" as="targetPoint" />
          </mxGeometry>
        </mxCell>
        <mxCell id="bQQ_jq8waS_YfLzM95Vw-25" value="" style="endArrow=none;html=1;rounded=0;" edge="1" parent="1">
          <mxGeometry width="50" height="50" relative="1" as="geometry">
            <mxPoint x="530" y="270" as="sourcePoint" />
            <mxPoint x="530" y="150" as="targetPoint" />
          </mxGeometry>
        </mxCell>
        <mxCell id="bQQ_jq8waS_YfLzM95Vw-26" value="" style="endArrow=none;html=1;rounded=0;" edge="1" parent="1">
          <mxGeometry width="50" height="50" relative="1" as="geometry">
            <mxPoint x="650" y="270" as="sourcePoint" />
            <mxPoint x="650" y="150" as="targetPoint" />
          </mxGeometry>
        </mxCell>
        <mxCell id="bQQ_jq8waS_YfLzM95Vw-27" value="" style="endArrow=none;html=1;rounded=0;" edge="1" parent="1">
          <mxGeometry width="50" height="50" relative="1" as="geometry">
            <mxPoint x="530" y="150" as="sourcePoint" />
            <mxPoint x="650" y="150" as="targetPoint" />
          </mxGeometry>
        </mxCell>
        <mxCell id="bQQ_jq8waS_YfLzM95Vw-28" value="" style="endArrow=none;html=1;rounded=0;" edge="1" parent="1">
          <mxGeometry width="50" height="50" relative="1" as="geometry">
            <mxPoint x="530" y="270" as="sourcePoint" />
            <mxPoint x="650" y="270" as="targetPoint" />
          </mxGeometry>
        </mxCell>
        <mxCell id="bQQ_jq8waS_YfLzM95Vw-29" value="3x5-LED-Array" style="text;strokeColor=none;align=center;fillColor=none;html=1;verticalAlign=middle;whiteSpace=wrap;rounded=0;" vertex="1" parent="1">
          <mxGeometry x="340" y="310" width="120" height="30" as="geometry" />
        </mxCell>
        <mxCell id="bQQ_jq8waS_YfLzM95Vw-30" value="8x8-LED-Matrix" style="text;strokeColor=none;align=center;fillColor=none;html=1;verticalAlign=middle;whiteSpace=wrap;rounded=0;" vertex="1" parent="1">
          <mxGeometry x="220" y="380" width="120" height="40" as="geometry" />
        </mxCell>
        <mxCell id="bQQ_jq8waS_YfLzM95Vw-31" value="Nucleo-Board" style="text;strokeColor=none;align=center;fillColor=none;html=1;verticalAlign=middle;whiteSpace=wrap;rounded=0;" vertex="1" parent="1">
          <mxGeometry x="150" y="190" width="120" height="40" as="geometry" />
        </mxCell>
        <mxCell id="bQQ_jq8waS_YfLzM95Vw-32" value="Verbindungsplatine" style="text;strokeColor=none;align=center;fillColor=none;html=1;verticalAlign=middle;whiteSpace=wrap;rounded=0;" vertex="1" parent="1">
          <mxGeometry x="530" y="190" width="120" height="40" as="geometry" />
        </mxCell>
        <mxCell id="bQQ_jq8waS_YfLzM95Vw-33" value="" style="endArrow=classic;html=1;rounded=0;entryX=0;entryY=0;entryDx=0;entryDy=0;" edge="1" parent="1" target="bQQ_jq8waS_YfLzM95Vw-32">
          <mxGeometry width="50" height="50" relative="1" as="geometry">
            <mxPoint x="270" y="190" as="sourcePoint" />
            <mxPoint x="320" y="140" as="targetPoint" />
          </mxGeometry>
        </mxCell>
        <mxCell id="bQQ_jq8waS_YfLzM95Vw-41" value="Datenfluss" style="edgeLabel;html=1;align=center;verticalAlign=middle;resizable=0;points=[];" vertex="1" connectable="0" parent="bQQ_jq8waS_YfLzM95Vw-33">
          <mxGeometry x="-0.0321" y="1" relative="1" as="geometry">
            <mxPoint y="-9" as="offset" />
          </mxGeometry>
        </mxCell>
        <mxCell id="bQQ_jq8waS_YfLzM95Vw-34" value="" style="endArrow=classic;html=1;rounded=0;" edge="1" parent="1">
          <mxGeometry width="50" height="50" relative="1" as="geometry">
            <mxPoint x="570" y="270" as="sourcePoint" />
            <mxPoint x="570" y="340" as="targetPoint" />
          </mxGeometry>
        </mxCell>
        <mxCell id="bQQ_jq8waS_YfLzM95Vw-43" value="Spannungsversorgung" style="edgeLabel;html=1;align=center;verticalAlign=middle;resizable=0;points=[];" vertex="1" connectable="0" parent="bQQ_jq8waS_YfLzM95Vw-34">
          <mxGeometry x="-0.2381" y="3" relative="1" as="geometry">
            <mxPoint x="-63" y="3" as="offset" />
          </mxGeometry>
        </mxCell>
        <mxCell id="bQQ_jq8waS_YfLzM95Vw-35" value="" style="endArrow=classic;html=1;rounded=0;" edge="1" parent="1">
          <mxGeometry width="50" height="50" relative="1" as="geometry">
            <mxPoint x="590" y="120" as="sourcePoint" />
            <mxPoint x="589.58" y="150" as="targetPoint" />
          </mxGeometry>
        </mxCell>
        <mxCell id="bQQ_jq8waS_YfLzM95Vw-40" value="Spannungsversorgung" style="edgeLabel;html=1;align=center;verticalAlign=middle;resizable=0;points=[];" vertex="1" connectable="0" parent="bQQ_jq8waS_YfLzM95Vw-35">
          <mxGeometry x="-0.4446" relative="1" as="geometry">
            <mxPoint y="-18" as="offset" />
          </mxGeometry>
        </mxCell>
        <mxCell id="bQQ_jq8waS_YfLzM95Vw-36" value="" style="endArrow=classic;html=1;rounded=0;" edge="1" parent="1">
          <mxGeometry width="50" height="50" relative="1" as="geometry">
            <mxPoint x="610" y="270" as="sourcePoint" />
            <mxPoint x="610" y="340" as="targetPoint" />
          </mxGeometry>
        </mxCell>
        <mxCell id="bQQ_jq8waS_YfLzM95Vw-42" value="Datenfluss" style="edgeLabel;html=1;align=center;verticalAlign=middle;resizable=0;points=[];" vertex="1" connectable="0" parent="bQQ_jq8waS_YfLzM95Vw-36">
          <mxGeometry x="-0.1667" y="2" relative="1" as="geometry">
            <mxPoint x="28" y="1" as="offset" />
          </mxGeometry>
        </mxCell>
        <mxCell id="bQQ_jq8waS_YfLzM95Vw-39" value="" style="endArrow=classic;html=1;rounded=0;entryX=1;entryY=1;entryDx=0;entryDy=0;exitX=0;exitY=1;exitDx=0;exitDy=0;" edge="1" parent="1" source="bQQ_jq8waS_YfLzM95Vw-32" target="bQQ_jq8waS_YfLzM95Vw-31">
          <mxGeometry width="50" height="50" relative="1" as="geometry">
            <mxPoint x="530" y="250" as="sourcePoint" />
            <mxPoint x="270" y="240" as="targetPoint" />
          </mxGeometry>
        </mxCell>
        <mxCell id="bQQ_jq8waS_YfLzM95Vw-44" value="Spannungsversorgung" style="edgeLabel;html=1;align=center;verticalAlign=middle;resizable=0;points=[];" vertex="1" connectable="0" parent="bQQ_jq8waS_YfLzM95Vw-39">
          <mxGeometry x="-0.0128" y="2" relative="1" as="geometry">
            <mxPoint x="-2" y="8" as="offset" />
          </mxGeometry>
        </mxCell>
        <mxCell id="bQQ_jq8waS_YfLzM95Vw-49" value="" style="endArrow=classic;startArrow=classic;html=1;rounded=0;" edge="1" parent="1">
          <mxGeometry width="50" height="50" relative="1" as="geometry">
            <mxPoint x="210" y="150" as="sourcePoint" />
            <mxPoint x="210" y="120" as="targetPoint" />
          </mxGeometry>
        </mxCell>
        <mxCell id="bQQ_jq8waS_YfLzM95Vw-50" value="MMCP" style="edgeLabel;html=1;align=center;verticalAlign=middle;resizable=0;points=[];" vertex="1" connectable="0" parent="bQQ_jq8waS_YfLzM95Vw-49">
          <mxGeometry x="0.0556" y="1" relative="1" as="geometry">
            <mxPoint x="1" y="-24" as="offset" />
          </mxGeometry>
        </mxCell>
        <mxCell id="bQQ_jq8waS_YfLzM95Vw-51" value="" style="rounded=0;whiteSpace=wrap;html=1;" vertex="1" parent="1">
          <mxGeometry x="100" y="380" width="40" height="40" as="geometry" />
        </mxCell>
        <mxCell id="bQQ_jq8waS_YfLzM95Vw-52" value="" style="rounded=0;whiteSpace=wrap;html=1;" vertex="1" parent="1">
          <mxGeometry x="380" y="660" width="40" height="40" as="geometry" />
        </mxCell>
        <mxCell id="bQQ_jq8waS_YfLzM95Vw-53" value="" style="rounded=0;whiteSpace=wrap;html=1;" vertex="1" parent="1">
          <mxGeometry x="660" y="380" width="40" height="40" as="geometry" />
        </mxCell>
        <mxCell id="bQQ_jq8waS_YfLzM95Vw-55" value="Paketübergabepunkt" style="text;strokeColor=none;align=center;fillColor=none;html=1;verticalAlign=middle;whiteSpace=wrap;rounded=0;" vertex="1" parent="1">
          <mxGeometry x="100" y="350" width="120" height="30" as="geometry" />
        </mxCell>
        <mxCell id="bQQ_jq8waS_YfLzM95Vw-58" value="" style="endArrow=classic;startArrow=classic;html=1;rounded=0;exitX=0;exitY=0.5;exitDx=0;exitDy=0;" edge="1" parent="1" source="bQQ_jq8waS_YfLzM95Vw-31">
          <mxGeometry width="50" height="50" relative="1" as="geometry">
            <mxPoint x="280" y="480" as="sourcePoint" />
            <mxPoint x="120" y="210" as="targetPoint" />
          </mxGeometry>
        </mxCell>
        <mxCell id="bQQ_jq8waS_YfLzM95Vw-59" value="GPIO&lt;br&gt;Nachbarn" style="edgeLabel;html=1;align=center;verticalAlign=middle;resizable=0;points=[];" vertex="1" connectable="0" parent="bQQ_jq8waS_YfLzM95Vw-58">
          <mxGeometry x="0.1333" y="2" relative="1" as="geometry">
            <mxPoint x="-43" y="-2" as="offset" />
          </mxGeometry>
        </mxCell>
      </root>
    </mxGraphModel>
  </diagram>
</mxfile>
